<?xml version="1.0" standalone="no"?>
<!DOCTYPE svg PUBLIC "-//W3C//DTD SVG 20010904//EN"
 "http://www.w3.org/TR/2001/REC-SVG-20010904/DTD/svg10.dtd">
<svg version="1.0" xmlns="http://www.w3.org/2000/svg"
 width="1000.000000pt" height="1000.000000pt" viewBox="0 0 1000.000000 1000.000000"
 preserveAspectRatio="xMidYMid meet">
<metadata>
Created by potrace 1.11, written by Peter Selinger 2001-2013
</metadata>
<g transform="translate(0.000000,1000.000000) scale(0.100000,-0.100000)"
fill="#000000" stroke="none">
<path d="M4260 7263 c0 -4 -17 -8 -37 -8 l-37 0 -13 -70 c-7 -38 -15 -79 -18
-90 -36 -151 -40 -170 -50 -240 -2 -11 -4 -20 -5 -20 -1 0 -3 -7 -5 -15 -1 -8
-8 -42 -15 -75 -7 -33 -13 -64 -14 -70 -2 -5 -8 -37 -15 -70 -8 -33 -14 -64
-15 -70 -2 -5 -8 -37 -15 -70 -8 -33 -15 -67 -16 -75 -2 -8 -4 -15 -5 -15 -1
0 -3 -9 -4 -20 -1 -11 -6 -36 -9 -55 -4 -19 -7 -38 -7 -43 0 -4 -6 -23 -14
-42 -10 -22 -11 -35 -4 -35 7 0 7 -4 0 -12 -9 -12 -16 -39 -26 -103 -1 -11 -6
-29 -9 -40 -3 -11 -9 -36 -12 -55 -3 -19 -8 -42 -11 -51 -2 -10 -7 -30 -9 -45
-8 -51 -11 -63 -17 -70 -4 -3 -4 -12 -1 -20 3 -8 1 -14 -3 -14 -5 0 -10 -10
-10 -22 -2 -38 -11 -82 -23 -111 -8 -20 -8 -26 0 -21 8 4 8 1 1 -12 -6 -11
-12 -32 -15 -49 -3 -16 -8 -41 -12 -55 -3 -14 -7 -37 -10 -52 -3 -15 -12 -58
-20 -95 -9 -37 -17 -79 -19 -93 -2 -14 -14 -69 -26 -124 -30 -136 -29 -133
-36 -158 -3 -13 -7 -30 -8 -38 -1 -8 -6 -31 -10 -50 -4 -19 -9 -44 -11 -55 -2
-11 -4 -20 -5 -20 -1 0 -3 -9 -4 -20 -2 -11 -6 -33 -10 -50 -9 -41 -16 -75
-22 -105 -3 -14 -7 -32 -9 -40 -2 -8 -7 -31 -10 -50 -3 -19 -10 -51 -15 -70
-5 -19 -12 -51 -15 -70 -3 -19 -8 -42 -10 -50 -2 -8 -6 -26 -9 -40 -10 -51
-15 -70 -20 -79 -9 -14 -706 -12 -707 3 -2 13 -1 15 7 58 4 18 8 40 9 48 1 8
5 22 8 30 6 19 37 166 42 204 3 15 7 36 10 46 3 10 8 27 10 37 2 10 8 39 14
66 6 26 14 63 17 83 3 20 12 57 19 82 8 25 13 48 11 50 -7 6 -1145 4 -1156 -3
-6 -4 -9 -13 -6 -20 2 -7 2 -16 -2 -19 -3 -4 -7 -14 -8 -22 -2 -9 -8 -37 -14
-63 -6 -25 -13 -57 -15 -71 -3 -14 -8 -41 -12 -60 -3 -19 -4 -35 -2 -36 2 0
-1 -7 -7 -15 -6 -8 -10 -22 -9 -31 2 -10 -1 -18 -6 -18 -6 0 -8 -4 -5 -8 4 -7
-1 -34 -20 -117 -3 -11 -7 -35 -9 -53 -2 -18 -7 -36 -10 -42 -3 -5 -8 -28 -11
-52 -3 -24 -9 -55 -14 -70 -5 -16 -6 -28 -2 -28 4 0 7 -21 8 -47 1 -104 26
-165 99 -239 48 -49 152 -110 185 -109 8 1 24 -3 35 -8 11 -6 31 -12 45 -14
35 -6 2089 -9 2084 -3 -3 2 -17 6 -32 8 -52 7 -147 56 -193 100 -50 47 -91
122 -104 187 -10 50 -15 187 -7 200 3 5 7 16 8 25 2 29 13 85 28 150 8 36 17
79 20 95 12 70 46 228 52 236 3 5 32 9 64 8 l58 -2 -9 -31 c-4 -17 -11 -44
-13 -61 -3 -16 -14 -73 -25 -125 -11 -52 -22 -107 -25 -122 -4 -16 -8 -40 -12
-55 -3 -16 -11 -53 -17 -83 -12 -50 -14 -182 -4 -220 27 -108 58 -162 119
-216 32 -28 121 -72 163 -80 6 -1 12 -3 15 -4 3 -1 14 -4 25 -7 35 -9 2128 -9
2170 0 22 5 47 11 55 15 8 3 17 6 20 6 47 11 102 32 111 42 6 8 17 14 23 14
25 0 196 143 196 164 0 4 8 16 19 27 47 51 119 233 136 344 3 22 8 48 11 58 3
11 7 29 9 40 2 12 6 33 9 47 8 35 15 71 21 100 3 14 8 39 11 55 4 17 8 39 9
50 2 11 4 21 5 23 2 1 3 5 4 10 6 26 19 90 22 107 1 11 6 31 9 45 3 14 8 36
11 50 3 14 7 32 9 40 2 8 7 31 10 50 3 19 13 64 21 100 18 75 21 245 5 264 -6
7 -8 15 -5 18 8 9 -43 104 -74 140 -67 76 -194 128 -327 133 -38 2 -359 3
-713 4 -639 1 -643 1 -637 21 4 11 8 32 10 48 2 15 4 27 5 27 1 0 3 7 5 15 5
29 25 125 31 150 3 14 7 39 10 55 3 17 7 36 10 44 2 7 11 48 20 90 9 42 18 84
20 94 4 16 8 34 19 87 6 27 13 61 20 100 3 14 9 40 14 58 5 18 10 35 10 37 1
3 1 6 2 8 0 1 2 13 4 27 2 14 9 48 15 75 6 28 13 62 15 78 9 62 -2 60 281 59
143 -1 274 -1 292 -2 33 0 34 -1 28 -37 -5 -38 -21 -118 -31 -160 -3 -13 -7
-31 -9 -40 -15 -71 -20 -99 -21 -108 -1 -5 -6 -32 -13 -60 -16 -69 -23 -106
-25 -135 l-2 -25 627 -1 c453 -1 630 2 637 10 8 10 34 120 46 196 3 14 6 32 8
40 10 42 17 77 21 100 2 14 9 47 15 74 7 27 9 51 6 54 -2 3 0 11 6 18 14 17
18 145 6 208 -12 69 -51 140 -102 191 -40 38 -99 74 -129 79 -6 1 -16 5 -22 8
-41 26 -135 29 -1256 31 -911 2 -1027 0 -1031 -13 -2 -9 -17 -16 -32 -18 -16
-1 -32 -8 -37 -15 -4 -6 -8 -9 -8 -4 0 13 -124 -54 -175 -96 -158 -129 -236
-288 -281 -577 -3 -19 -8 -44 -11 -55 -7 -21 -10 -33 -18 -75 -2 -14 -9 -47
-15 -75 -6 -27 -12 -59 -14 -70 -3 -11 -9 -40 -15 -65 -5 -25 -13 -61 -16 -80
-3 -19 -8 -42 -10 -50 -2 -8 -7 -27 -10 -42 -3 -16 -7 -40 -10 -55 -3 -16 -8
-35 -10 -43 -2 -8 -7 -28 -10 -45 -2 -16 -8 -41 -11 -55 -15 -62 -12 -196 7
-253 36 -113 122 -200 232 -236 52 -18 48 -36 -5 -26 -24 4 -52 8 -63 10 -48
4 -143 53 -186 94 -85 83 -120 174 -115 303 2 46 6 97 10 113 4 17 11 55 17
85 6 30 14 69 19 85 5 17 11 46 14 65 2 19 9 53 14 75 6 22 13 54 16 70 7 43
14 78 37 180 11 50 22 101 25 115 5 28 26 127 31 150 2 8 5 24 7 35 14 87 56
190 110 270 38 57 117 145 131 145 3 0 18 11 32 25 32 29 141 84 192 97 20 5
43 11 51 13 8 2 18 4 23 4 4 1 7 5 7 10 0 5 -15 5 -34 1 -19 -4 -37 -5 -40 -2
-7 7 -76 9 -76 2 0 -3 -27 -3 -60 0 -33 3 -60 2 -60 -2 0 -5 -9 -4 -20 2 -11
6 -20 7 -20 3 0 -4 -54 -6 -120 -3 -66 3 -120 1 -120 -3 0 -4 -9 -3 -20 3 -11
6 -20 7 -20 3z m1622 -1972 c-1 -7 -10 -45 -18 -85 -8 -39 -17 -82 -19 -96 -2
-14 -4 -25 -5 -25 -2 0 -5 -15 -13 -55 -20 -100 -24 -119 -26 -122 -2 -2 -4
-14 -6 -28 -2 -14 -8 -45 -15 -70 -6 -25 -12 -54 -14 -65 -2 -11 -12 -56 -21
-100 -10 -44 -19 -93 -21 -108 -2 -15 -9 -38 -16 -50 -6 -12 -10 -24 -9 -27 1
-3 -1 -25 -5 -50 -5 -25 -9 -49 -9 -55 -1 -5 -7 -35 -14 -66 l-13 -55 -297 0
c-290 1 -296 1 -294 21 4 36 13 89 28 153 8 34 17 77 20 95 3 18 14 70 24 116
11 47 18 88 15 92 -2 4 1 11 7 14 5 4 8 13 5 21 -3 8 -1 14 3 14 5 0 8 8 6 18
-2 9 -4 20 -4 25 -1 4 -77 7 -170 7 l-170 0 3 23 c2 12 6 29 9 37 3 8 6 22 6
30 0 8 5 38 11 65 6 28 14 64 17 80 3 17 10 36 15 43 7 8 7 12 -2 12 -9 0 -10
3 -1 14 6 7 12 26 13 42 1 16 5 34 8 39 4 6 6 20 5 33 -1 13 2 25 7 28 4 3 8
16 8 30 l0 24 478 -2 c396 -3 477 -5 474 -17z"/>
<path d="M7840 4564 c0 -6 -27 -10 -71 -9 -72 1 -76 -1 -84 -42 -2 -10 -4 -19
-5 -20 -4 -4 -21 -105 -22 -123 0 -3 -5 -16 -10 -30 -6 -14 -11 -41 -12 -61
-2 -19 -5 -40 -9 -46 -4 -6 -9 -28 -12 -49 -4 -22 -8 -47 -11 -56 -7 -25 -16
-71 -17 -85 0 -7 -3 -13 -6 -13 -3 0 -7 -15 -8 -33 -3 -40 -7 -59 -14 -72 -3
-5 -5 -22 -4 -37 1 -16 -2 -28 -6 -28 -5 0 -8 -11 -7 -25 3 -28 -4 -26 131
-26 93 0 119 8 123 37 2 24 13 84 19 104 2 8 7 28 9 45 6 35 29 55 56 48 13
-4 20 -18 26 -56 5 -29 8 -60 7 -69 0 -10 2 -18 6 -18 3 0 7 -16 8 -37 1 -20
6 -40 12 -46 10 -10 215 -12 231 -2 6 4 8 21 5 38 -3 18 -8 46 -10 62 -2 17
-4 30 -5 30 -1 0 -4 23 -7 52 -4 47 -2 52 19 59 35 11 76 65 82 110 3 16 7 40
10 54 4 14 8 36 11 50 3 14 13 64 23 112 16 72 17 91 6 116 -15 37 -45 54 -99
57 -23 1 -46 4 -52 8 -5 4 -13 3 -17 -1 -12 -11 -280 -9 -288 3 -5 7 -8 7 -8
-1z m182 -107 c45 1 61 -8 38 -22 -5 -3 -10 -11 -10 -16 0 -6 6 -7 13 -3 9 6
9 5 0 -7 -7 -8 -15 -31 -17 -50 -3 -19 -10 -52 -16 -74 -6 -22 -13 -58 -16
-79 -10 -71 -8 -70 -139 -67 -23 1 -24 3 -15 22 7 11 9 23 7 26 -3 2 -1 19 4
36 6 18 12 46 15 62 5 38 12 70 14 70 1 0 3 11 5 25 3 14 7 34 9 45 2 11 5 24
5 28 1 5 5 6 10 2 5 -3 12 -1 16 5 4 6 11 7 18 3 6 -3 33 -6 59 -6z"/>
<path d="M7160 4539 c0 -4 -9 -5 -19 -2 -11 3 -26 0 -33 -6 -39 -31 -70 -61
-65 -61 3 0 0 -12 -8 -26 -7 -15 -11 -32 -9 -39 3 -7 0 -16 -5 -20 -6 -3 -9
-10 -7 -14 3 -4 -4 -45 -15 -92 -11 -46 -22 -95 -24 -109 -2 -14 -7 -36 -10
-50 -3 -14 -8 -35 -11 -47 -2 -13 -6 -35 -10 -50 -3 -16 -7 -41 -10 -58 -3
-16 -9 -45 -14 -62 -5 -20 -5 -33 1 -33 5 0 9 -8 9 -18 0 -19 31 -42 64 -47
12 -2 30 -6 41 -8 11 -2 30 -1 42 4 12 5 24 5 27 1 6 -9 68 -8 83 1 6 4 14 3
18 -2 3 -7 15 -7 29 -1 13 5 27 6 30 2 9 -8 77 -9 82 -1 2 4 18 4 35 -1 33
-10 31 -11 48 52 5 21 6 40 3 42 -4 2 -64 3 -134 2 -118 -1 -131 1 -130 24 1
19 13 78 31 155 22 90 33 149 34 173 0 6 4 12 9 12 5 0 7 4 4 8 -3 5 -1 26 5
47 17 61 21 79 21 97 -1 33 23 39 152 36 l126 -3 9 28 c6 15 7 27 4 27 -3 0 0
6 6 14 9 11 9 16 -1 23 -16 10 -408 12 -408 2z"/>
<path d="M3302 3511 c-4 -3 -8 -10 -9 -16 0 -5 -4 -28 -8 -50 -3 -22 -8 -49
-9 -60 -2 -11 -6 -36 -10 -55 -3 -19 -8 -46 -10 -60 -2 -14 -7 -41 -11 -60 -3
-19 -7 -46 -9 -60 -2 -14 -7 -42 -11 -62 -7 -36 -9 -38 -47 -38 l-40 0 7 47
c3 26 8 50 11 55 6 10 7 9 -74 12 -35 1 -65 -1 -67 -4 -6 -10 -18 -95 -16
-120 3 -48 21 -55 160 -57 81 -1 136 3 152 10 29 15 55 67 63 127 3 25 8 56
10 70 3 14 8 42 11 63 11 76 15 104 29 174 7 39 11 75 7 80 -7 9 -116 13 -129
4z"/>
<path d="M3481 3466 c-6 -28 -13 -67 -15 -86 -3 -19 -8 -46 -11 -60 -2 -13 -7
-40 -10 -60 -3 -20 -7 -45 -9 -57 -42 -215 -41 -217 136 -220 188 -3 193 1
222 172 8 50 18 104 21 120 3 17 8 50 10 74 3 24 7 47 9 50 3 4 7 32 11 62 l6
55 -67 0 -68 -1 -8 -35 c-7 -36 -16 -89 -22 -137 -2 -15 -7 -39 -10 -53 -3
-14 -8 -41 -11 -60 -2 -19 -7 -46 -10 -60 -2 -13 -7 -42 -11 -64 -3 -22 -8
-44 -10 -48 -7 -10 -71 -10 -77 0 -4 6 8 82 38 242 3 19 7 44 9 55 1 11 7 47
12 80 4 33 9 64 9 69 0 6 -30 10 -67 11 l-67 2 -10 -51z"/>
<path d="M3948 3508 c-28 -10 -53 -49 -61 -98 -4 -19 -9 -51 -13 -70 -21 -106
-4 -124 113 -125 l88 0 -2 -30 c-2 -16 -7 -53 -13 -82 l-11 -53 -41 0 -40 0 7
48 6 47 -68 0 c-76 0 -79 -3 -82 -91 -2 -64 10 -69 170 -70 136 -1 138 -1 163
25 19 20 28 47 41 118 19 110 14 138 -26 152 -19 7 -29 7 -29 0 0 -6 -5 -7
-10 -4 -6 4 -38 7 -71 7 l-61 1 6 41 c10 70 18 111 23 116 9 9 68 7 74 -3 4
-5 3 -22 -1 -37 -4 -15 -5 -31 -1 -36 3 -5 34 -9 68 -10 68 0 67 -1 77 68 7
47 -10 88 -38 89 -95 5 -248 3 -268 -3z"/>
<path d="M4313 3506 c-12 -18 -11 -56 0 -57 7 -1 29 -2 50 -2 38 0 38 0 33
-36 -7 -48 -25 -160 -31 -191 -2 -13 -7 -40 -10 -60 -3 -20 -7 -47 -10 -60 -3
-14 -8 -46 -11 -72 l-7 -48 67 2 c37 1 69 5 71 8 2 4 7 21 10 38 7 43 15 91
21 127 2 17 9 55 14 85 5 30 12 73 16 95 17 113 15 110 69 110 45 1 49 3 57
30 4 16 5 31 2 34 -10 10 -335 7 -341 -3z"/>
<path d="M4865 3512 c-53 -10 -70 -53 -90 -230 -6 -54 19 -68 117 -66 45 2 85
1 89 -2 4 -2 3 -19 -1 -37 -5 -17 -11 -49 -15 -71 -7 -52 -11 -56 -51 -56 -32
0 -40 8 -34 35 8 39 6 55 -9 56 -93 7 -123 0 -128 -26 -11 -64 -9 -95 8 -113
16 -18 32 -19 158 -18 129 1 142 3 162 22 20 21 53 140 43 156 -3 4 -1 8 3 8
15 0 7 80 -9 96 -11 12 -38 16 -99 16 -46 1 -87 5 -90 10 -6 10 17 137 27 147
3 3 21 6 41 7 l35 2 -6 -47 -6 -47 64 1 c72 1 74 2 82 36 12 59 11 76 -6 99
-17 23 -23 24 -142 25 -67 0 -132 -1 -143 -3z"/>
<path d="M5276 3512 c-40 -8 -65 -63 -82 -182 -7 -54 -24 -157 -30 -190 -27
-148 -22 -154 133 -157 187 -3 210 10 229 132 4 28 9 52 9 55 1 3 5 30 9 60 5
30 10 64 12 75 22 106 25 178 6 197 -11 11 -240 19 -286 10z m158 -79 c4 -8 4
-18 1 -23 -3 -4 -7 -23 -9 -41 -5 -38 -15 -100 -22 -132 -2 -12 -6 -39 -9 -62
-3 -22 -9 -53 -12 -70 -4 -16 -7 -34 -7 -40 -1 -5 -20 -11 -44 -13 l-43 -3 5
33 c11 62 16 93 22 128 4 19 8 44 9 55 2 11 6 34 9 50 3 17 9 50 12 75 8 57 6
56 48 57 22 0 37 -5 40 -14z"/>
<path d="M5688 3511 c-19 -5 -58 -52 -59 -70 -1 -18 -4 -39 -20 -121 -6 -30
-13 -73 -15 -95 -3 -22 -12 -73 -19 -114 -15 -77 -10 -102 23 -120 19 -10 251
-12 253 -2 0 3 3 18 5 34 5 30 1 31 -108 27 -44 -1 -47 0 -42 22 2 13 6 37 9
53 3 17 7 41 10 55 7 37 16 92 20 115 1 11 8 50 15 86 l12 66 75 -1 c78 -2 81
0 85 44 l3 24 -117 1 c-64 0 -123 -1 -130 -4z"/>
<path d="M6028 3511 c-28 -8 -58 -46 -64 -80 -7 -40 -8 -46 -19 -111 -4 -25
-9 -54 -11 -65 -3 -11 -7 -36 -10 -55 -3 -19 -7 -46 -10 -60 -11 -63 -14 -104
-9 -120 9 -29 53 -39 167 -39 l108 1 8 31 c5 18 8 34 6 35 -1 2 -37 4 -78 3
-42 0 -76 2 -76 6 0 6 37 222 45 263 2 13 7 42 11 65 3 22 10 45 15 51 5 6 37
10 71 10 72 -2 88 6 88 43 l0 26 -115 0 c-63 0 -120 -2 -127 -4z"/>
<path d="M6350 3505 c-30 -16 -47 -45 -55 -95 -4 -25 -9 -52 -10 -60 -1 -8 -6
-35 -10 -60 -13 -87 -15 -95 -25 -150 -19 -91 -18 -109 5 -134 19 -21 30 -23
142 -24 l122 -1 6 30 c4 17 5 32 3 34 -2 2 -37 5 -77 6 l-72 2 6 41 c3 23 7
50 9 61 3 11 5 30 5 42 1 20 6 21 56 19 60 -3 79 8 73 45 -3 20 -8 23 -55 22
-51 -1 -53 0 -52 25 0 15 6 52 12 82 l12 55 75 0 c72 0 75 1 84 27 5 15 6 31
2 35 -12 12 -233 10 -256 -2z"/>
<path d="M6656 3505 c-7 -5 -19 -48 -26 -95 -7 -47 -14 -94 -16 -105 -9 -45
-29 -166 -40 -235 -14 -89 -16 -85 53 -88 69 -3 75 2 87 73 15 89 18 96 34 93
13 -2 19 -22 27 -83 l10 -80 70 0 c64 0 70 2 68 20 -15 136 -15 146 11 166 25
20 31 37 42 124 3 28 8 54 11 58 3 5 7 34 9 65 8 94 4 96 -176 97 -92 1 -157
-3 -164 -10z m204 -66 c0 -3 -4 -28 -9 -55 -5 -27 -12 -69 -16 -94 -10 -73
-11 -75 -52 -75 -42 1 -42 1 -29 80 3 22 8 58 12 80 10 70 11 71 54 71 22 0
40 -3 40 -7z"/>
</g>
</svg>
